<?xml version="1.0" encoding="UTF-8" standalone="no"?><!DOCTYPE svg PUBLIC "-//W3C//DTD SVG 1.1//EN" "http://www.w3.org/Graphics/SVG/1.1/DTD/svg11.dtd"><svg width="100%" height="100%" viewBox="0 0 451 451" version="1.1" xmlns="http://www.w3.org/2000/svg" xmlns:xlink="http://www.w3.org/1999/xlink" xml:space="preserve" xmlns:serif="http://www.serif.com/" style="fill-rule:evenodd;clip-rule:evenodd;stroke-linejoin:round;stroke-miterlimit:2;"><path d="M384.178,228.37c87.885,50.741 87.885,133.008 -0.001,183.749c-87.887,50.741 -230.377,50.741 -318.263,0.001c-87.885,-50.741 -87.885,-133.008 0.001,-183.75c87.886,-50.741 230.377,-50.741 318.263,0" style="fill:#f5f5f5;fill-rule:nonzero;"/><path d="M292.825,350.902c16.159,9.33 16.159,24.456 0,33.786c-16.16,9.329 -42.359,9.329 -58.519,-0c-16.159,-9.33 -16.158,-24.456 0,-33.786c16.161,-9.329 42.36,-9.329 58.519,-0" style="fill:#e1e1e1;fill-rule:nonzero;"/><path d="M77.041,325.054c0,-0 -1.085,-25.262 -11.671,-39.316c-10.585,-14.055 -23.572,-16.082 -30.015,-12.126c-4.694,2.883 -4.062,11.44 4.066,17.033c8.129,5.593 23.797,19.812 26.245,29.103l11.375,5.306Z" style="fill:#2b454e;fill-rule:nonzero;"/><path d="M70.092,321.373c-0.356,-0.022 -0.631,-0.327 -0.614,-0.685c1.088,-22.919 -19.024,-37.211 -24.47,-39.783c-0.328,-0.156 -0.467,-0.546 -0.313,-0.872c0.155,-0.329 0.545,-0.464 0.872,-0.314c5.612,2.652 26.342,17.386 25.22,41.031c-0.017,0.362 -0.324,0.642 -0.685,0.624c-0,-0 -0.008,-0.001 -0.01,-0.001" style="fill:#fff;fill-rule:nonzero;"/><path d="M72.011,317.078c-1.471,-0.211 -2.895,-0.473 -3.863,-1.54c-1.233,-1.358 -1.128,-3.423 -1.696,-5.168c-0.929,-2.858 -3.751,-4.796 -6.693,-5.411c-2.943,-0.614 -6.001,-0.11 -8.921,0.607c-5.898,1.448 -11.568,-2.183 -17.48,-1.754c-2.111,0.154 -4.255,0.655 -5.986,1.873c-1.731,1.219 -2.985,3.25 -2.865,5.364c0.1,1.762 1.123,3.37 2.435,4.55c1.313,1.18 2.905,1.995 4.478,2.797c1.729,0.881 3.458,1.763 5.186,2.644c0.858,0.437 1.73,0.885 2.411,1.564c1.283,1.278 2.172,3.751 1.813,5.525c-0.401,1.979 -2.024,3.524 -2.506,5.485c-0.633,2.574 0.939,5.322 3.196,6.713c2.257,1.39 5.036,1.652 7.683,1.5c2.646,-0.153 5.266,-0.683 7.916,-0.73c1.786,-0.032 3.646,0.18 5.164,1.123c1.851,1.149 2.928,3.215 3.627,5.279c0.45,1.327 0.797,2.725 1.623,3.856c0.856,1.173 2.16,1.952 3.523,2.451c2.613,0.956 5.65,0.984 8.258,-0.016c2.186,-0.838 3.256,-3.309 4.072,-5.446c0.819,-2.146 1.209,-4.708 1.151,-6.985c-0.151,-5.95 -1.491,-12.37 -4.068,-17.74c-1.231,-2.564 -3.018,-5.123 -5.72,-6.011c-0.863,-0.283 -1.81,-0.397 -2.738,-0.53" style="fill:#375a64;fill-rule:nonzero;"/><path d="M77.74,344.544c-0.242,-0 -0.467,-0.151 -0.551,-0.391c-6.165,-17.687 -35.363,-33.082 -46.038,-34.846c-0.319,-0.053 -0.534,-0.352 -0.482,-0.671c0.053,-0.319 0.361,-0.535 0.671,-0.481c10.879,1.797 40.648,17.526 46.951,35.612c0.107,0.305 -0.053,0.638 -0.358,0.744c-0.064,0.023 -0.129,0.033 -0.193,0.033" style="fill:#fff;fill-rule:nonzero;"/><path d="M51.504,334.859c-0.175,0 -0.348,-0.079 -0.463,-0.228c-0.196,-0.255 -0.148,-0.623 0.107,-0.819c0.266,-0.204 6.609,-4.994 16.217,-5.21l0.013,0c0.316,0 0.577,0.254 0.584,0.571c0.006,0.322 -0.249,0.59 -0.572,0.597c-9.228,0.206 -15.469,4.92 -15.531,4.968c-0.105,0.081 -0.231,0.121 -0.355,0.121" style="fill:#fff;fill-rule:nonzero;"/><path d="M78.047,358.234c-1.168,-0.675 -2.116,-2.388 -2.116,-3.826l-0.001,-208.398c0,-1.438 1.01,-3.187 2.256,-3.906l245.17,-141.54c1.246,-0.719 3.203,-0.755 4.372,-0.08c1.168,0.674 2.116,2.387 2.116,3.826l0.001,208.397c0,1.439 -1.009,3.188 -2.256,3.907l-245.171,141.539c-1.246,0.72 -3.203,0.756 -4.371,0.081" style="fill:#375a64;fill-rule:nonzero;"/><path d="M81.99,358.348c-0.031,0.01 -0.062,0.031 -0.094,0.031c-0.073,0.042 -0.145,0.063 -0.218,0.084c-0.052,0.02 -0.105,0.041 -0.167,0.052c-0.094,0.031 -0.198,0.062 -0.313,0.073c-0.062,0.02 -0.135,0.041 -0.208,0.041c-0.104,0.021 -0.229,0.042 -0.344,0.052c-0.927,0.104 -1.896,-0.041 -2.594,-0.448c-1.177,-0.677 -2.115,-2.385 -2.115,-3.823l-0.01,-181.684l4.24,2.449l-0,181.673c-0,1.021 0.511,1.615 1.25,1.615c0.104,0 0.198,-0.011 0.302,-0.042c0.021,0 0.032,0 0.052,-0.011c0.073,-0.01 0.146,-0.031 0.219,-0.062" style="fill:#00dfbf;fill-rule:nonzero;"/><g opacity="0.81"><path d="M81.99,358.348c-0.031,0.01 -0.062,0.031 -0.094,0.031c-0.073,0.042 -0.145,0.063 -0.218,0.084c-0.052,0.02 -0.105,0.041 -0.167,0.052c-0.094,0.031 -0.198,0.062 -0.313,0.073c-0.062,0.02 -0.135,0.041 -0.208,0.041c-0.104,0.021 -0.229,0.042 -0.344,0.052c-0.927,0.104 -1.896,-0.041 -2.594,-0.448c-1.177,-0.677 -2.115,-2.385 -2.115,-3.823l-0.01,-181.684l4.24,2.449l-0,181.673c-0,1.021 0.511,1.615 1.25,1.615c0.104,0 0.198,-0.011 0.302,-0.042c0.021,0 0.032,0 0.052,-0.011c0.073,-0.01 0.146,-0.031 0.219,-0.062" style="fill:#e1e1e1;fill-rule:nonzero;"/></g><path d="M80.166,175.175l-4.24,-2.448l0,40.35l4.24,2.468l0,-40.37Z" style="fill:#00dfbf;fill-rule:nonzero;"/><g opacity="0.15"><path d="M80.166,175.175l-4.24,-2.448l0,40.35l4.24,2.468l0,-40.37Z" style="fill-rule:nonzero;"/></g><path d="M80.823,146.233c-0.406,0.698 -0.656,1.5 -0.656,2.219l-0,26.723l-4.24,-2.448l-0,-26.713c-0,-0.093 -0,-0.177 0.01,-0.271c0.021,-0.187 0.052,-0.375 0.094,-0.562c0.114,-0.469 0.313,-0.959 0.563,-1.396l4.229,2.448Z" style="fill:#1a2e35;fill-rule:nonzero;"/><path d="M329.84,4.306l-0,12.054l-179.713,103.754c-1.24,0.718 -2.25,0.135 -2.25,-1.303l-0,-4.563c-0,-1.438 -1.011,-2.021 -2.261,-1.302l-54.729,31.599c-1.25,0.719 -2.26,2.469 -2.26,3.907l-0,4.563c-0,1.438 -1.011,3.188 -2.251,3.907l-6.209,3.584l-0,-12.054c-0,-1.438 1.01,-3.188 2.25,-3.907l245.173,-141.541c1.239,-0.719 2.25,-0.135 2.25,1.302" style="fill:#2b454e;fill-rule:nonzero;"/><path d="M329.85,212.702c0,1.438 -1.011,3.188 -2.261,3.907l-245.173,141.541c-1.239,0.719 -2.25,0.135 -2.25,-1.302l0,-196.342l6.209,-3.584c1.24,-0.719 3.262,-11.658 4.512,-12.378l53.813,-31.071c1.25,-0.718 4.187,7.359 5.426,6.64l179.713,-103.753l0,14.669l0.011,181.673Z" style="fill:#00dfbf;fill-rule:nonzero;"/><g opacity="0.9"><path d="M329.85,212.702c0,1.438 -1.011,3.188 -2.261,3.907l-245.173,141.541c-1.239,0.719 -2.25,0.135 -2.25,-1.302l0,-196.342l6.209,-3.584c1.24,-0.719 3.262,-11.658 4.512,-12.378l53.813,-31.071c1.25,-0.718 4.187,7.359 5.426,6.64l179.713,-103.753l0,14.669l0.011,181.673Z" style="fill:#fff;fill-rule:nonzero;"/></g><g opacity="0.4"><path d="M329.84,16.36l-179.713,103.753c-0.053,0.031 -0.109,0.046 -0.168,0.046c-1.261,0 -3.82,-6.731 -5.09,-6.731c-0.059,0 -0.115,0.015 -0.169,0.046l-53.813,31.071c-1.25,0.719 -3.271,11.658 -4.511,12.377l-6.209,3.584l-0,196.342c-0,1.02 0.508,1.61 1.247,1.61c0.302,0 0.643,-0.099 1.003,-0.308l245.173,-141.541c1.25,-0.719 2.261,-2.469 2.261,-3.907l-0.011,-181.673l-0,-14.669Zm-1,1.732l-0,12.937l0.011,181.673c-0,1.081 -0.823,2.502 -1.761,3.041l-245.174,141.542c-0.269,0.156 -0.441,0.173 -0.502,0.173c-0.235,0 -0.247,-0.508 -0.247,-0.61l-0,-195.765l5.711,-3.296c0.886,-0.514 1.446,-2.262 2.707,-6.762c0.567,-2.023 1.418,-5.061 1.876,-5.657l53.367,-30.813c0.462,0.518 1.236,1.88 1.725,2.741c1.442,2.538 2.249,3.863 3.406,3.863c0.235,0 0.466,-0.063 0.668,-0.18l178.213,-102.887" style="fill:#00dfbf;fill-rule:nonzero;"/></g><path d="M80.166,175.175l0,40.37l249.673,-144.129l0,-40.387l-249.673,144.146Z" style="fill:#00dfbf;fill-rule:nonzero;"/><path d="M329.84,16.36l-0,14.669l-249.673,144.146l-0,-14.669l4.637,-2.686c1.24,-0.719 1.657,-1.812 2.25,-3.907l1.573,-5.461c0.496,-1.897 1.01,-3.188 2.26,-3.907l53.813,-31.071c1.25,-0.719 2.226,-0.798 3.177,0.774l1.929,3.501c0.708,1.223 1.062,1.942 2.302,1.223l177.732,-102.612Z" style="fill:#f0f0f0;fill-rule:nonzero;"/><path d="M319.265,11.866c1.567,-0.905 2.838,-0.171 2.838,1.639c-0,1.81 -1.271,4.011 -2.838,4.916c-1.568,0.905 -2.839,0.171 -2.839,-1.639c-0,-1.81 1.271,-4.011 2.839,-4.916" style="fill:#00dfbf;fill-rule:nonzero;"/><path d="M309.045,17.758c1.568,-0.905 2.839,-0.171 2.839,1.639c-0,1.81 -1.271,4.011 -2.839,4.916c-1.567,0.905 -2.838,0.172 -2.838,-1.638c-0,-1.811 1.271,-4.012 2.838,-4.917" style="fill:#00dfbf;fill-rule:nonzero;"/><path d="M298.826,23.649c1.567,-0.905 2.839,-0.171 2.839,1.639c0,1.81 -1.272,4.011 -2.839,4.916c-1.567,0.905 -2.838,0.172 -2.838,-1.638c0,-1.811 1.271,-4.012 2.838,-4.917" style="fill:#00dfbf;fill-rule:nonzero;"/><g opacity="0.5"><path d="M90.514,161.564l-3.541,2.044l1.35,-2.596c0.119,-0.228 0.131,-0.512 0.027,-0.635c-0.104,-0.124 -0.284,-0.036 -0.402,0.19l-1.921,3.696c-0.003,0.004 -0.003,0.009 -0.006,0.014c-0.021,0.043 -0.036,0.089 -0.051,0.137c-0.005,0.015 -0.012,0.029 -0.016,0.045c-0.015,0.063 -0.024,0.127 -0.024,0.19c-0,0.063 0.009,0.117 0.024,0.163c0.004,0.01 0.011,0.016 0.016,0.026c0.015,0.031 0.03,0.059 0.051,0.078c0.003,0.002 0.003,0.005 0.006,0.007l1.921,1.477c0.054,0.042 0.121,0.039 0.188,-0c0.079,-0.045 0.157,-0.142 0.214,-0.274c0.104,-0.242 0.092,-0.512 -0.027,-0.603l-1.35,-1.038l3.541,-2.044c0.158,-0.091 0.285,-0.361 0.285,-0.603c-0,-0.242 -0.127,-0.365 -0.285,-0.274" style="fill:#375a64;fill-rule:nonzero;"/></g><g opacity="0.5"><path d="M93.472,159.856l3.541,-2.044l-1.35,-1.038c-0.119,-0.091 -0.131,-0.361 -0.027,-0.604c0.104,-0.243 0.284,-0.363 0.402,-0.273l1.921,1.477c0.002,0.002 0.003,0.006 0.005,0.008c0.022,0.018 0.037,0.046 0.052,0.077c0.004,0.01 0.012,0.016 0.016,0.027c0.015,0.045 0.024,0.099 0.024,0.162c-0,0.063 -0.009,0.127 -0.024,0.191c-0.004,0.015 -0.012,0.029 -0.016,0.045c-0.015,0.047 -0.03,0.094 -0.052,0.136c-0.002,0.004 -0.003,0.01 -0.005,0.014l-1.921,3.696c-0.054,0.104 -0.121,0.178 -0.188,0.216c-0.079,0.046 -0.158,0.041 -0.214,-0.026c-0.104,-0.123 -0.092,-0.407 0.027,-0.634l1.35,-2.597l-3.541,2.044c-0.158,0.091 -0.285,-0.031 -0.285,-0.274c-0,-0.242 0.127,-0.512 0.285,-0.603" style="fill:#375a64;fill-rule:nonzero;"/></g><g opacity="0.5"><path d="M105.088,149.658c-0.022,-0.213 -0.208,-0.186 -0.302,0.045l-0.486,1.186c-0.826,-0.089 -1.829,0.718 -2.505,2.151c-0.877,1.857 -0.877,4.054 -0,4.898c0.438,0.422 1.014,0.427 1.59,0.094c0.576,-0.332 1.152,-1.002 1.59,-1.931c0.112,-0.235 0.112,-0.513 -0,-0.62c-0.111,-0.107 -0.291,-0.003 -0.403,0.233c-0.654,1.384 -1.72,2.002 -2.375,1.371c-0.654,-0.63 -0.654,-2.271 -0,-3.657c0.466,-0.986 1.137,-1.57 1.722,-1.606l-0.366,0.894c-0.094,0.232 -0.008,0.448 0.141,0.351l1.444,-0.943c0.101,-0.066 0.177,-0.25 0.161,-0.396l-0.211,-2.07Z" style="fill:#375a64;fill-rule:nonzero;"/></g><g opacity="0.5"><path d="M143.147,120.17l1.291,-2.732c0.152,-0.324 0.152,-0.705 0,-0.851c-0.153,-0.147 -0.4,-0.004 -0.553,0.319l-1.291,2.732l-1.29,-1.242c-0.153,-0.146 -0.4,-0.004 -0.553,0.319c-0.152,0.323 -0.152,0.704 0,0.851l1.291,1.242l-1.291,2.733c-0.152,0.323 -0.152,0.704 0,0.85c0.077,0.074 0.176,0.075 0.276,0.017c0.1,-0.058 0.2,-0.174 0.277,-0.336l1.29,-2.733l1.291,1.243c0.076,0.073 0.177,0.074 0.276,0.017c0.1,-0.058 0.2,-0.175 0.277,-0.336c0.152,-0.323 0.152,-0.704 0,-0.85l-1.291,-1.243Z" style="fill:#375a64;fill-rule:nonzero;"/></g><path d="M109.787,153.018l-0,-4.564c-0,-1.439 1.01,-3.188 2.255,-3.907l202.85,-117.055c1.247,-0.719 2.256,-0.136 2.256,1.302l-0,4.564c-0.001,1.439 -1.01,3.188 -2.256,3.908l-202.85,117.055c-1.245,0.719 -2.255,0.136 -2.255,-1.303" style="fill:#fff;fill-rule:nonzero;"/><path d="M311.084,33.889l0.914,0.66c0.15,0.11 0.222,0.305 0.194,0.537l-0.187,1.559l0.989,-1.257c0.141,-0.181 0.323,-0.271 0.508,-0.25l1.186,0.147c-0.019,-0.02 0.053,-0.156 0.042,-0.24l-0.227,-1.628c-0.023,-0.166 0.017,-0.357 0.105,-0.526l0.958,-1.796l-1.096,0.42c-0.234,0.089 -0.466,-0.004 -0.57,-0.228l-0.493,-1.048c-0.002,0.005 -0.004,0.011 -0.006,0.017l-0.591,1.943c-0.057,0.183 -0.164,0.345 -0.297,0.447l-1.325,1.021c-0.062,0.049 -0.101,0.161 -0.104,0.222m0.739,3.633c-0.06,-0 -0.117,-0.012 -0.166,-0.032c-0.161,-0.067 -0.32,-0.256 -0.281,-0.585l0.226,-1.89c0.001,-0.009 0.002,-0.014 0.003,-0.016l-0.915,-0.66c-0.126,-0.092 -0.197,-0.243 -0.2,-0.428c-0.005,-0.269 0.13,-0.556 0.335,-0.714l1.325,-1.021c0.029,-0.022 0.069,-0.079 0.091,-0.151l0.592,-1.942c0.097,-0.319 0.332,-0.546 0.585,-0.564c0.181,-0.016 0.347,0.085 0.429,0.258l-0,0.001l0.534,1.135l1.2,-0.461c0.184,-0.069 0.372,-0.025 0.494,0.113c0.167,0.188 0.174,0.512 0.017,0.806l-0.958,1.799c-0.035,0.066 -0.047,0.132 -0.042,0.166l0.226,1.627c0.039,0.287 -0.1,0.575 -0.256,0.734c-0.133,0.134 -0.291,0.198 -0.447,0.177l-1.185,-0.146l-1.153,1.541c-0.145,0.186 -0.311,0.253 -0.454,0.253" style="fill:#e1e1e1;fill-rule:nonzero;"/><g opacity="0.5"><path d="M319.808,26.935c-0.271,-0 -0.533,-0.14 -0.678,-0.39c-0.216,-0.374 -0.088,-0.852 0.285,-1.068l6.349,-3.665c0.375,-0.216 0.852,-0.087 1.067,0.286c0.215,0.374 0.087,0.852 -0.286,1.067l-6.347,3.666c-0.123,0.071 -0.258,0.104 -0.39,0.104" style="fill:#375a64;fill-rule:nonzero;"/><path d="M319.808,30.601c-0.271,0 -0.533,-0.14 -0.678,-0.391c-0.216,-0.374 -0.088,-0.851 0.285,-1.067l6.349,-3.665c0.375,-0.218 0.852,-0.087 1.067,0.286c0.215,0.374 0.087,0.851 -0.286,1.067l-6.347,3.666c-0.123,0.07 -0.258,0.104 -0.39,0.104" style="fill:#375a64;fill-rule:nonzero;"/><path d="M319.808,34.268c-0.271,-0 -0.533,-0.14 -0.678,-0.391c-0.216,-0.374 -0.088,-0.851 0.285,-1.067l6.349,-3.665c0.375,-0.218 0.852,-0.088 1.067,0.286c0.215,0.374 0.087,0.851 -0.286,1.067l-6.347,3.665c-0.123,0.071 -0.258,0.105 -0.39,0.105" style="fill:#375a64;fill-rule:nonzero;"/></g><path d="M80.166,160.506l0,14.669l-4.24,-2.448l0,-14.659l4.24,2.438Z" style="fill:#e1e1e1;fill-rule:nonzero;"/><g transform="matrix(0.866025,-0.500001,0,1.1547,-12.4824,-48.5704)"><text x="304.128px" y="265.745px" style="font-family:'ArialMT', 'Arial', sans-serif;font-size:21.042px;fill:#375a64;">A<tspan x="317.36px 328.571px 339.783px 350.995px 357.135px 364.741px 380.998px " y="265.745px 265.745px 265.745px 265.745px 265.745px 265.745px 265.745px ">bout me</tspan></text></g><g opacity="0.1"><path d="M90.998,225.065l69.055,-39.869l0,112.571l-69.255,39.754l0.2,-112.456Z" style="fill:#00dfbf;fill-rule:nonzero;"/></g><g opacity="0.15"><path d="M175.27,178.485l83.303,-48.095c1.674,-0.967 3.031,-0.233 3.031,1.639c0,1.872 -1.354,4.179 -3.022,5.154l-83.322,48.636c-1.669,0.975 -3.022,0.198 -3.022,-1.735l0,-0.349c0,-1.933 1.358,-4.284 3.032,-5.25" style="fill:#00dfbf;fill-rule:nonzero;"/></g><g opacity="0.1"><path d="M174.403,193.056l137.841,-79.582c1.197,-0.69 2.165,-0.2 2.165,1.095c-0,1.296 -0.969,2.905 -2.165,3.595l-137.841,79.582c-1.196,0.691 -2.165,0.201 -2.165,-1.095c-0,-1.295 0.97,-2.905 2.165,-3.595" style="fill:#00dfbf;fill-rule:nonzero;"/></g><g opacity="0.1"><path d="M174.403,202.472l137.841,-79.582c1.197,-0.69 2.165,-0.2 2.165,1.095c-0,1.296 -0.969,2.905 -2.165,3.596l-137.841,79.581c-1.196,0.691 -2.165,0.201 -2.165,-1.095c-0,-1.295 0.97,-2.905 2.165,-3.595" style="fill:#00dfbf;fill-rule:nonzero;"/></g><g opacity="0.1"><path d="M174.403,211.889l137.841,-79.583c1.197,-0.69 2.165,-0.199 2.165,1.096c-0,1.295 -0.969,2.905 -2.165,3.595l-137.841,79.582c-1.196,0.691 -2.165,0.2 -2.165,-1.095c-0,-1.295 0.97,-2.905 2.165,-3.595" style="fill:#00dfbf;fill-rule:nonzero;"/></g><g opacity="0.1"><path d="M174.403,221.306l137.841,-79.582c1.197,-0.69 2.165,-0.2 2.165,1.095c-0,1.296 -0.969,2.905 -2.165,3.595l-137.841,79.582c-1.196,0.691 -2.165,0.201 -2.165,-1.095c-0,-1.295 0.97,-2.905 2.165,-3.595" style="fill:#00dfbf;fill-rule:nonzero;"/></g><g opacity="0.1"><path d="M174.403,230.722l96.172,-55.966c1.196,-0.691 2.165,-0.2 2.165,1.095c-0,1.295 -0.969,2.905 -2.166,3.596l-96.171,55.965c-1.196,0.691 -2.165,0.201 -2.165,-1.095c-0,-1.295 0.97,-2.905 2.165,-3.595" style="fill:#00dfbf;fill-rule:nonzero;"/></g><g opacity="0.1"><path d="M174.403,249.556l137.841,-79.582c1.197,-0.69 2.165,-0.2 2.165,1.095c-0,1.296 -0.969,2.905 -2.165,3.595l-137.841,79.582c-1.196,0.691 -2.165,0.201 -2.165,-1.095c-0,-1.295 0.97,-2.905 2.165,-3.595" style="fill:#00dfbf;fill-rule:nonzero;"/></g><g opacity="0.1"><path d="M174.403,258.972l137.841,-79.582c1.197,-0.69 2.165,-0.2 2.165,1.095c-0,1.296 -0.969,2.905 -2.165,3.596l-137.841,79.581c-1.196,0.691 -2.165,0.201 -2.165,-1.095c-0,-1.295 0.97,-2.905 2.165,-3.595" style="fill:#00dfbf;fill-rule:nonzero;"/></g><g opacity="0.1"><path d="M174.403,268.389l137.841,-79.583c1.197,-0.69 2.165,-0.199 2.165,1.096c-0,1.295 -0.969,2.905 -2.165,3.595l-137.841,79.582c-1.196,0.691 -2.165,0.2 -2.165,-1.095c-0,-1.295 0.97,-2.905 2.165,-3.595" style="fill:#00dfbf;fill-rule:nonzero;"/></g><g opacity="0.1"><path d="M174.403,277.806l50.643,-29.56c1.196,-0.69 2.165,-0.2 2.165,1.096c-0,1.295 -0.97,2.905 -2.165,3.595l-50.643,29.559c-1.196,0.691 -2.165,0.201 -2.165,-1.095c-0,-1.295 0.97,-2.905 2.165,-3.595" style="fill:#00dfbf;fill-rule:nonzero;"/></g><path d="M315.991,186.382c-3.801,-3.83 -5.159,-2.341 -5.64,1.859c-0.354,3.099 -1.268,5.133 -1.268,5.133c-0.269,-1.298 -0.383,-1.89 -0.715,-2.534c-0.66,-1.279 -1.777,-1.31 -2.254,-1.11c-0.372,0.155 0.087,1.045 0.029,2.671c-0.075,2.084 -0.748,3.235 -0.261,5.447c0.183,0.829 0.03,1.693 -0.373,2.44c-2.051,3.794 -8.594,10.821 -13.205,15.874c-4.075,-3.682 -13.193,-11.92 -17.557,-15.852c-5.988,-5.395 -7.941,-7.828 -13.732,-7.432c-0,0 2.243,0.683 4.927,2.953c2.683,2.269 2.045,15.261 2.045,15.261c-0,0 19.921,14.287 21.97,15.645c0.301,0.2 0.608,0.38 0.913,0.543c2,1.065 4.477,0.559 5.969,-1.146c4.254,-4.862 10.449,-14.428 14.034,-19.401c1.681,-2.332 3.306,-5.518 4.331,-7.541c3.558,-7.023 3.168,-10.41 0.787,-12.81" style="fill:#f7a2a8;fill-rule:nonzero;"/><path d="M261.604,192.523c0,0 4.036,-1.055 8.013,1.963c3.419,2.595 17.963,15.969 17.963,15.969c0,0 0.395,7.085 -6.996,11.314l-17.879,-12.609l-1.101,-16.637Z" style="fill:#00dfbf;fill-rule:nonzero;"/><g opacity="0.3"><path d="M261.604,192.523c0,0 4.036,-1.055 8.013,1.963c3.419,2.595 17.963,15.969 17.963,15.969c0,0 0.395,7.085 -6.996,11.314l-17.879,-12.609l-1.101,-16.637Z" style="fill-rule:nonzero;"/></g><rect x="236.789" y="352.511" width="7.571" height="13.5" style="fill:#f7a2a8;"/><path d="M263.042,351.791l7.567,0.271l0.379,-14.287l-7.946,-0.271l-0,14.287Z" style="fill:#f7a2a8;fill-rule:nonzero;"/><path d="M235.724,235.627c0,7.53 1.109,68.135 1.109,68.135c-0.177,2.167 -2.128,6.162 -1.705,14.485c0.574,11.305 1.338,41.015 1.338,41.015c0,-0 3.675,2.237 8.43,0.173c0,-0 7.162,-41.149 8.519,-52.353c1.184,-9.778 3.193,-42.699 3.193,-42.699l4.104,38.279c0,-0 -1.396,5.832 -0.938,12.532c0.354,5.183 2.789,32.172 2.789,32.172c0,-0 3.564,2.518 8.742,0.697c0,-0 4.307,-40.647 4.395,-45.401c0.1,-5.422 -2.518,-67.116 -2.518,-67.116l-37.458,0.081Z" style="fill:#2b454e;fill-rule:nonzero;"/><path d="M244.361,362.119l0,-1.128c0.725,0.329 2.408,7.018 5.412,9.872c2.389,2.269 5.647,4.889 6.475,7.419c0.862,2.63 -4.537,4.083 -6.768,3.671c-2.593,-0.478 -7.086,-2.379 -8.214,-4.142c-1.129,-1.762 -1.656,-4.362 -2.573,-5.654c-0.917,-1.292 -3.03,-2.734 -3.525,-4.229c-0.273,-0.822 0.05,-2.621 0.433,-4.14c0.351,-1.395 0.732,-2.928 1.189,-2.797c0.001,0.17 0,0.86 0,0.86c0.55,0.634 2.07,1.264 3.785,1.332c1.108,0.045 3.795,-0.184 3.786,-1.064" style="fill:#1a2e35;fill-rule:nonzero;"/><path d="M270.689,349.63c0.394,0.014 0.713,0.592 1.581,1.57c1.048,1.181 2.762,2.455 4.454,3.338c2.835,1.478 8.347,3.752 10.841,4.922c1.559,0.732 1.486,2.692 -0.125,3.808c-1.611,1.115 -5.501,1.92 -10.17,0.832c-2.545,-0.593 -5.856,-3.04 -7.953,-2.908c-2.096,0.132 -6.019,0.1 -7.566,-1.011c-1.547,-1.11 -0.928,-3.483 -0.491,-5.521c0.477,-2.225 1.075,-5.695 1.782,-5.543l0,0.767c0.91,1.436 5.607,2.02 7.607,0.963l0.04,-1.217Z" style="fill:#1a2e35;fill-rule:nonzero;"/><path d="M256.608,264.383c-0,-0 6.052,-1.776 10.544,-6.297c-0,-0 -2.035,3.968 -8.085,7.66l1.294,34.184l-3.753,-35.547Z" style="fill:#1a2e35;fill-rule:nonzero;"/><path d="M239.663,194.551c-0,-0 -5.925,0.542 -5.504,11.83l1.309,17.981l-0.123,26.983c5.568,6.309 30.252,5.847 38.702,-0.505c-0,-0 -0.87,-31.933 -1.441,-44.221c-0.406,-8.735 -2.416,-13.133 -11.002,-14.095l-10.558,0.464l-11.383,1.563Z" style="fill:#00dfbf;fill-rule:nonzero;"/><path d="M318.879,177.482l-27.713,7.299l-7.629,31.357l26.349,-7.653l8.993,-31.003Z" style="fill:#00dfbf;fill-rule:nonzero;"/><g opacity="0.25"><path d="M318.879,177.482l-27.713,7.299l-7.629,31.357l26.349,-7.653l8.993,-31.003Z" style="fill-rule:nonzero;"/></g><g opacity="0.1"><path d="M306.357,199.687c0.257,0.703 1.955,3.25 5.182,3.097l0.201,-0.693l-5.383,-2.404Z" style="fill-rule:nonzero;"/></g><g opacity="0.1"><path d="M310.531,182.463c0,-0 0.102,-0.473 0.229,-1.057c0.125,-0.584 -1.5,-0.609 -3.633,-0.056l-4.083,1.059c-2.133,0.553 -3.964,1.475 -4.09,2.058l-0.229,1.058l11.806,-3.062Z" style="fill-rule:nonzero;"/></g><path d="M312.659,178.49c0.081,-0.365 -0.578,-0.46 -1.472,-0.213l-1.617,0.446c0,-0 0.483,-2.286 -3.105,-1.487c-3.588,0.799 -4.372,3.395 -4.372,3.395c0,-0 -0.774,0.219 -1.727,0.49c-0.953,0.271 -1.817,0.785 -1.93,1.148l-0.204,0.658l14.276,-3.759c0,-0 0.071,-0.313 0.151,-0.678" style="fill:#2b454e;fill-rule:nonzero;"/><path d="M310.693,179.617c-1.309,0.316 -1.852,0.489 -2.047,1.389c-0.224,1.028 -0.314,1.782 -0.314,1.782l-6.319,1.67c0,-0 0.306,-1.301 0.403,-1.808c0.098,-0.508 -0.118,-0.813 -1.122,-0.547l-0.086,-0.403l9.9,-2.52l-0.415,0.437Z" style="fill:#2b454e;fill-rule:nonzero;"/><path d="M310.911,182.562c0,0 0.102,-0.473 0.229,-1.057c0.125,-0.584 -1.5,-0.609 -3.633,-0.056l-4.083,1.059c-2.133,0.553 -3.964,1.475 -4.09,2.058l-0.229,1.058l11.806,-3.062Z" style="fill:#2b454e;fill-rule:nonzero;"/><path d="M315.959,187.549c-0,0 -1.036,3.545 -1.273,4.39c-0.238,0.845 -3.342,2.364 -5.379,2.923c-2.038,0.56 -4.266,1.224 -3.302,4.072c0.889,2.626 4.241,3.226 5.948,3.152c1.706,-0.075 4.043,-1.706 4.963,-4.335c1.175,-3.354 0.542,-6.937 1.008,-8.896c0.467,-1.959 -0.944,-2.474 -1.965,-1.306" style="fill:#f7a2a8;fill-rule:nonzero;"/><g opacity="0.3"><path d="M256.488,200.471l1.359,9.479l3.167,-0.059l-3.572,0.564l-0.954,-9.984Z" style="fill-rule:nonzero;"/></g><path d="M220.87,233.311c3.072,-24.697 10.137,-36.974 18.751,-38.417l-0.61,15.802c0,0 -5.786,13.192 -8.199,26.145c-1.132,6.08 -2.444,16.65 -2.104,21.846c0.06,0.92 0.468,1.777 1.1,2.423c1.698,1.732 2.213,3.23 3.354,5.185c0.893,1.53 1.814,2.072 1.577,2.439c-0.306,0.473 -1.31,1.12 -2.637,0.343c-0.667,-0.391 -1.468,-1.186 -2.459,-2.217c0,0 -0.251,3.811 1.236,6.876c2.015,4.155 1.68,6.346 -3.901,5.122c-3.497,-0.767 -6.019,-4.455 -6.955,-13.068c-0.27,-2.481 -0.304,-6.493 -0.173,-9.654c0.339,-8.233 0.405,-17.883 1.02,-22.825" style="fill:#f7a2a8;fill-rule:nonzero;"/><path d="M240.113,194.487c-4.474,-0.017 -8.554,0.769 -11.799,7.019c-3.112,5.995 -5.505,18.692 -6.714,22.837c0,-0 6.532,3.86 12.537,3.767l4.234,-14.685c0,-0 2.856,-6.855 1.742,-18.938" style="fill:#00dfbf;fill-rule:nonzero;"/><g opacity="0.3"><path d="M240.113,194.487c-4.474,-0.017 -8.554,0.769 -11.799,7.019c-3.112,5.995 -5.505,18.692 -6.714,22.837c0,-0 6.532,3.86 12.537,3.767l4.234,-14.685c0,-0 2.856,-6.855 1.742,-18.938" style="fill-rule:nonzero;"/></g><path d="M249.338,169.062c-0,6.484 5.047,11.741 11.272,11.741c6.226,-0 11.272,-5.257 11.272,-11.741c-0,-6.484 -5.046,-11.741 -11.272,-11.741c-6.225,-0 -11.272,5.257 -11.272,11.741" style="fill:#1a2e35;fill-rule:nonzero;"/><path d="M242.167,174.935c-0,0 1.729,8.46 2.422,9.85c0.694,1.391 2.126,1.785 2.126,1.785l-0.121,-5.951l-4.427,-5.684Z" style="fill:#1a2e35;fill-rule:nonzero;"/><path d="M244.337,162.816c-0,-0 -1.24,-0.311 -2.557,1.747c-1.129,1.764 -1.385,5.726 0.387,10.373l3.257,0.389l-1.087,-12.509Z" style="fill:#1a2e35;fill-rule:nonzero;"/><path d="M246.4,175.328c-0.653,0.406 -1.584,-0.901 -2.39,-1.778c-0.805,-0.878 -3.434,-2.077 -4.746,0.801c-1.336,2.933 1.158,6.809 3.228,7.485c3.567,1.167 4.102,-1.216 4.102,-1.216l0.272,13.4c4.736,7.325 15.462,7.06 11.605,-0.354l-0.01,-4.079c0,-0 3.232,0.511 4.809,0.258c2.623,-0.423 4.273,-2.579 5.069,-5.536c1.278,-4.75 1.763,-8.585 0.679,-17.927c-1.189,-10.24 -12.623,-10.346 -18.798,-6.298c-6.174,4.048 -3.82,15.244 -3.82,15.244" style="fill:#f7a2a8;fill-rule:nonzero;"/><path d="M246.806,191.016c-0,-0 1.666,3.602 4.638,5.811c2.732,2.03 5.611,2.385 5.611,2.385c-0,-0 -2.778,1.84 -3.959,4.445c-1.181,2.605 -9.513,-4.567 -9.438,-9.655c-0,-0 1.308,-5.111 3.098,-5.439l0.05,2.453Z" style="fill:#1a2e35;fill-rule:nonzero;"/><path d="M257.055,199.212c-0,-0 2.569,-1.277 1.417,-5.546l-0.01,-4.079l1.126,0.151c0.876,0.789 2.256,2.647 2.707,4.69c0.258,1.167 0.891,7.085 -0.238,8.26c-1.027,1.07 -2.7,-3.158 -5.002,-3.476" style="fill:#1a2e35;fill-rule:nonzero;"/><path d="M246.401,176.472c-0.329,0.007 -1.578,-2.152 -2.39,-2.922c-1.127,-1.068 0.326,-10.734 0.326,-10.734c-0,-0 -1.082,-2.403 1.087,-4.89c1.543,-1.768 4.122,-1.965 8.525,-2.685c1.715,-0.281 3.547,-0.468 5.219,-0.941c1.791,-0.508 3.552,-1.695 5.219,-2.541c0.552,-0.28 1.169,-0.567 1.766,-0.406c0.574,0.154 0.974,0.702 1.123,1.277c0.148,0.575 0.091,1.181 0.033,1.772c1.02,-1.126 3.013,-0.961 4.055,0.145c1.041,1.106 1.185,2.858 0.633,4.273c-0.553,1.415 -1.695,2.528 -2.954,3.379c-5.534,3.735 -12.065,2.698 -18.259,1.964c-0.297,-0.035 -0.611,-0.065 -0.883,0.059c-0.969,0.44 -1.177,3.453 -1.347,4.323c-0.574,2.933 -1.049,7.905 -2.153,7.927" style="fill:#1a2e35;fill-rule:nonzero;"/><path d="M244.343,163.325l-3.948,-2.208c0.56,-1.178 1.898,-1.639 2.989,-1.029c1.09,0.61 1.52,2.059 0.959,3.237" style="fill:#1a2e35;fill-rule:nonzero;"/><path d="M258.462,189.587c-0,0 -5.856,-1.229 -7.903,-2.362c-1.37,-0.759 -2.498,-2.074 -2.83,-2.916c-0,0 0.384,1.809 1.608,3.44c1.497,1.993 9.125,3.461 9.125,3.461l-0,-1.623Z" style="fill:#f58c90;fill-rule:nonzero;"/><path d="M256.343,173.455c0,0.701 -0.525,1.268 -1.173,1.266c-0.648,-0.001 -1.174,-0.572 -1.174,-1.273c0,-0.701 0.526,-1.268 1.174,-1.266c0.648,0.002 1.173,0.572 1.173,1.273" style="fill:#1a2e35;fill-rule:nonzero;"/><path d="M254.328,168.375l-2.51,1.443c-0.37,-0.751 -0.108,-1.683 0.585,-2.081c0.693,-0.399 1.555,-0.113 1.925,0.638" style="fill:#1a2e35;fill-rule:nonzero;"/><path d="M257.932,182.245l2.679,1.047c-0.265,0.8 -1.08,1.214 -1.82,0.925c-0.74,-0.289 -1.124,-1.172 -0.859,-1.972" style="fill:#f58c90;fill-rule:nonzero;"/><path d="M268.065,169.776l-2.638,-1.285c0.305,-0.769 1.142,-1.105 1.87,-0.75c0.729,0.355 1.073,1.266 0.768,2.035" style="fill:#1a2e35;fill-rule:nonzero;"/><path d="M266.326,173.455c0,0.701 -0.525,1.269 -1.174,1.266c-0.648,-0.001 -1.173,-0.571 -1.173,-1.273c0,-0.701 0.525,-1.268 1.173,-1.266c0.649,0.002 1.174,0.572 1.174,1.273" style="fill:#1a2e35;fill-rule:nonzero;"/><path d="M259.678,172.547l0.136,7.411l4.207,-0.965l-4.343,-6.446Z" style="fill:#f58c90;fill-rule:nonzero;"/><path d="M251.067,173.322c-0,-1.944 1.552,-3.525 3.46,-3.525l0.535,0c1.907,0 3.46,1.581 3.46,3.525c-0,1.944 -1.553,3.525 -3.46,3.525l-0.535,0c-1.908,0 -3.46,-1.581 -3.46,-3.525m3.46,-2.931c-1.586,0 -2.877,1.315 -2.877,2.931c-0,1.616 1.291,2.931 2.877,2.931l0.535,0c1.586,0 2.876,-1.315 2.876,-2.931c-0,-1.616 -1.29,-2.931 -2.876,-2.931l-0.535,0Z" style="fill:#1a2e35;fill-rule:nonzero;"/><path d="M261.617,173.322c0,-1.944 1.552,-3.525 3.46,-3.525l0.535,0c1.907,0 3.459,1.581 3.459,3.525c0,1.944 -1.552,3.525 -3.459,3.525l-0.535,0c-1.908,0 -3.46,-1.581 -3.46,-3.525m3.46,-2.931c-1.586,0 -2.877,1.315 -2.877,2.931c0,1.616 1.291,2.931 2.877,2.931l0.535,0c1.585,0 2.876,-1.315 2.876,-2.931c0,-1.616 -1.291,-2.931 -2.876,-2.931l-0.535,0Z" style="fill:#1a2e35;fill-rule:nonzero;"/><path d="M258.478,172.626c0.32,-0.535 1.038,-0.908 1.828,-0.949c0.681,-0.035 1.281,0.194 1.595,0.614l0.465,-0.36c-0.436,-0.585 -1.197,-0.894 -2.09,-0.847c-0.992,0.051 -1.872,0.523 -2.296,1.232l0.498,0.31Z" style="fill:#1a2e35;fill-rule:nonzero;"/><rect x="245.423" y="172.598" width="5.964" height="0.594" style="fill:#1a2e35;"/></svg>